<?xml version="1.0" standalone="no"?>
<!DOCTYPE svg PUBLIC "-//W3C//DTD SVG 20010904//EN"
 "http://www.w3.org/TR/2001/REC-SVG-20010904/DTD/svg10.dtd">
<svg version="1.0" xmlns="http://www.w3.org/2000/svg"
 width="480.000000pt" height="480.000000pt" viewBox="0 0 480.000000 480.000000"
 preserveAspectRatio="xMidYMid meet">
<metadata>
Created by potrace 1.14, written by Peter Selinger 2001-2017
</metadata>
<g transform="translate(0.000000,480.000000) scale(0.100000,-0.100000)"
fill="#000000" stroke="none">
<path d="M2165 4669 c-1137 -120 -2005 -1084 -2005 -2229 0 -1237 1003 -2240
2240 -2240 1237 0 2240 1003 2240 2240 0 1245 -1015 2251 -2259 2239 -75 -1
-172 -5 -216 -10z m1327 -1297 c60 -26 133 -99 161 -160 31 -68 31 -197 -1
-267 -19 -41 -148 -175 -705 -732 -557 -557 -691 -686 -732 -705 -40 -18 -68
-23 -135 -23 -141 0 -134 -5 -547 408 -413 413 -408 406 -408 547 0 103 21
157 90 225 68 69 122 90 225 90 134 0 147 -9 412 -272 l228 -227 548 546 c301
300 558 551 572 559 86 44 208 49 292 11z"/>
</g>
</svg>
